<?xml version="1.0" encoding="UTF-8"?>
<svg width="160px" height="160px" viewBox="0 0 160 160" version="1.1" xmlns="http://www.w3.org/2000/svg" xmlns:xlink="http://www.w3.org/1999/xlink">
    <!-- Generator: sketchtool 51.3 (57544) - http://www.bohemiancoding.com/sketch -->
    <title>8B28A2FE-9E79-41C2-AEA7-C3C2BC6E4CD9@3x</title>
    <desc>Created with sketchtool.</desc>
    <defs></defs>
    <g id="Main" stroke="none" stroke-width="1" fill="none" fill-rule="evenodd">
        <g id="Главная-фото" transform="translate(-210.000000, -973.000000)" fill="#000000" fill-rule="nonzero">
            <path d="M367.192959,989.677653 C370.934347,985.864399 370.937014,979.677861 367.192959,975.864607 C363.443571,972.048686 357.363482,972.048686 353.619428,975.864607 C351.267393,978.253891 350.395381,981.581821 350.995389,984.66709 L332.917792,1003.06404 L321.594961,991.538947 L315.933545,997.298827 L325.371016,1006.90663 L289.999833,1042.90321 L254.636651,1006.90663 L264.074122,997.298827 L258.415373,991.538947 L247.087208,1003.06404 L229.006944,984.664424 C229.606953,981.579155 228.729606,978.256557 226.382906,975.86194 C222.638851,972.04602 216.553429,972.04602 212.812041,975.86194 C209.062653,979.680527 209.062653,985.861732 212.812041,989.677653 C215.161409,992.066936 218.425456,992.957584 221.4575,992.352263 L239.535097,1010.74921 L228.209599,1022.27964 L233.871015,1028.04219 L243.311152,1018.43439 L278.677002,1054.43097 L219.044132,1115.12304 L212.809374,1132.99467 L230.366964,1126.6508 L289.997167,1065.95606 L349.630036,1126.65347 L367.190292,1133 L360.955535,1115.12837 L301.325332,1054.4283 L336.691181,1018.43439 L346.131319,1028.04485 L351.792734,1022.28231 L340.467236,1010.75455 L358.544833,992.357597 C361.57421,992.960251 364.838258,992.069603 367.192959,989.677653 Z" id="Shape"></path>
        </g>
    </g>
</svg>